<svg width="234" height="178" viewBox="0 0 234 178" fill="none" xmlns="http://www.w3.org/2000/svg">
<path d="M67.3991 142.006C71.5102 144.138 76.6787 142.728 78.9435 138.859C81.2084 134.991 79.7118 130.126 75.6009 127.994C71.49 125.863 66.3213 127.271 64.0565 131.14C61.7916 135.009 63.2882 139.874 67.3991 142.006Z" fill="#A8A7A6"/>
<path d="M67.3991 142.006C71.5102 144.138 76.6787 142.728 78.9435 138.859C81.2084 134.991 79.7118 130.126 75.6009 127.994C71.49 125.863 66.3213 127.271 64.0565 131.14C61.7916 135.009 63.2882 139.874 67.3991 142.006Z" fill="#A8A7A6"/>
<path d="M67.3991 142.006C71.5102 144.138 76.6787 142.728 78.9435 138.859C81.2084 134.991 79.7118 130.126 75.6009 127.994C71.49 125.863 66.3213 127.271 64.0565 131.14C61.7916 135.009 63.2882 139.874 67.3991 142.006Z" fill="#A8A7A6"/>
<path d="M67.3991 142.006C71.5102 144.138 76.6787 142.728 78.9435 138.859C81.2084 134.991 79.7118 130.126 75.6009 127.994C71.49 125.863 66.3213 127.271 64.0565 131.14C61.7916 135.009 63.2882 139.874 67.3991 142.006Z" fill="#A8A7A6"/>
<path d="M104.92 156.858L100.087 118.763C85.7885 119.986 79.856 116.716 72.7008 104.382C66.0701 93.311 59.696 90.6692 45.3143 90L8.94833 106.461C1.27919 109.932 0.954197 120.221 8.39022 124.126L89.553 166.747C96.989 170.653 105.94 164.892 104.92 156.858Z" fill="#F84B07" fill-opacity="0.54"/>
<path d="M9.01094 104.229L69.6529 76.2561C73.6471 74.4136 76.9448 71.3819 79.0751 67.5935L97.3526 35.0914C98.8368 32.452 98.8351 29.251 97.348 26.6132C96.4795 25.0727 98.2075 23.378 99.7809 24.2272L125.057 37.8699C126.545 38.6729 126.199 40.8587 124.532 41.1821C121.896 41.6938 119.624 43.3208 118.327 45.6274L99.5972 78.9349C97.5377 82.5973 96.6694 86.7887 97.1088 90.9479L103.946 155.666C104.816 163.902 95.8801 169.702 88.4768 165.707L8.41867 122.496C0.929504 118.453 1.27506 107.797 9.01094 104.229Z" stroke="#A8A7A6" stroke-width="6"/>
<path d="M105.946 47.2548C104.945 46.7086 103.686 47.0695 103.135 48.0609C102.584 49.0523 102.948 50.2989 103.949 50.8451L105.946 47.2548ZM100.5 57.0466C99.4988 56.5004 98.2403 56.8614 97.6889 57.853C97.1375 58.8444 97.5019 60.0909 98.5027 60.6372L100.5 57.0466ZM95.0537 66.8387C94.0527 66.2925 92.7945 66.6534 92.2431 67.645C91.6917 68.6364 92.056 69.883 93.0569 70.4292L95.0537 66.8387ZM87.9969 80.641C86.8781 80.4098 85.7821 81.1204 85.5485 82.2285C85.3149 83.3367 86.0323 84.4222 87.151 84.6536L87.9969 80.641ZM86.1951 92.5881C85.0528 92.5661 84.1086 93.4657 84.0865 94.5977C84.0644 95.7295 84.9727 96.6647 86.1153 96.6865L86.1951 92.5881ZM85.8463 106.912C84.7101 107.035 83.8891 108.046 84.0122 109.171C84.1355 110.297 85.1564 111.11 86.2924 110.988L85.8463 106.912ZM114 51.6504L105.946 47.2548L103.949 50.8451L112.003 55.2407L114 51.6504ZM108.554 61.4425L100.5 57.0466L98.5027 60.6372L106.557 65.0328L108.554 61.4425ZM103.108 71.2345L95.0537 66.8387L93.0569 70.4292L101.111 74.8248L103.108 71.2345ZM97.4127 82.5886L87.9969 80.641L87.151 84.6536L96.5669 86.6015L97.4127 82.5886ZM95.2851 92.7623L86.1951 92.5881L86.1153 96.6865L95.205 96.8607L95.2851 92.7623ZM95.6169 105.863L85.8463 106.912L86.2924 110.988L96.063 109.938L95.6169 105.863Z" fill="#A8A7A6"/>
<path d="M44.8465 117.316C47.5065 118.782 50.851 117.814 52.3164 115.153C53.7819 112.493 52.8135 109.149 50.1535 107.684C47.4935 106.218 44.149 107.187 42.6836 109.847C41.2181 112.506 42.1865 115.851 44.8465 117.316Z" fill="#EBE7E6"/>
<path d="M131.847 56.3163C134.506 57.7819 137.851 56.8136 139.316 54.1535C140.782 51.4935 139.813 48.149 137.153 46.6836C134.494 45.2181 131.149 46.1865 129.684 48.8465C128.218 51.5065 129.187 54.8509 131.847 56.3163Z" fill="#F84B07" fill-opacity="0.54"/>
<path d="M67.3991 142.006C71.5102 144.138 76.6787 142.728 78.9435 138.859C81.2084 134.991 79.7118 130.126 75.6009 127.994C71.49 125.863 66.3213 127.271 64.0565 131.14C61.7916 135.009 63.2882 139.874 67.3991 142.006Z" fill="#EBE7E6"/>
<path d="M150.399 34.9439C154.51 37.2087 159.679 35.7108 161.944 31.5998C164.208 27.4908 162.712 22.3213 158.601 20.0565C154.49 17.7916 149.321 19.2882 147.056 23.3989C144.792 27.5099 146.288 32.679 150.399 34.9439Z" fill="#F84B07" fill-opacity="0.54"/>
<path d="M122.917 17.8196C127.511 20.3509 133.288 18.6768 135.819 14.0821C138.351 9.48973 136.678 3.71201 132.083 1.18075C127.489 -1.35051 121.712 0.322106 119.181 4.91636C116.649 9.5111 118.322 15.2883 122.917 17.8196Z" fill="#F84B07" fill-opacity="0.54"/>
<path d="M111.531 80.4023L110.496 77.5866C109.222 78.055 108.421 79.3211 108.544 80.6734C108.666 82.0256 109.682 83.1269 111.02 83.3584L111.531 80.4023ZM196.663 47.6104L198.866 49.6462C199.815 48.6193 199.929 47.0731 199.14 45.9185C198.352 44.7639 196.87 44.3071 195.568 44.8171L196.663 47.6104ZM173.045 97.4413L170.131 98.153C170.157 98.2609 170.189 98.3672 170.227 98.4714L173.045 97.4413ZM190.416 142.539L187.617 143.617L190.416 142.539ZM209.245 154.077L210.275 156.895C211.654 156.39 212.466 154.961 212.192 153.518C211.918 152.075 210.64 151.042 209.171 151.078L209.245 154.077ZM180.007 146.114L182.956 145.568L182.924 145.394L182.872 145.225L180.007 146.114ZM173.855 167.018L171.609 165.03C170.699 166.058 170.603 167.573 171.377 168.708C172.151 169.842 173.596 170.307 174.886 169.835L173.855 167.018ZM111.531 80.4023L112.566 83.2181C144.77 71.3807 163.358 63.8822 197.757 50.4036L196.663 47.6104L195.568 44.8171C161.131 58.3107 142.623 65.7772 110.496 77.5866L111.531 80.4023ZM196.663 47.6104C194.459 45.5745 194.459 45.5751 194.458 45.5757C194.458 45.5761 194.457 45.5769 194.456 45.5776C194.455 45.5791 194.453 45.5811 194.451 45.5835C194.446 45.5884 194.44 45.5951 194.432 45.6037C194.417 45.6208 194.394 45.6453 194.365 45.677C194.307 45.7404 194.224 45.8325 194.116 45.9522C193.901 46.1915 193.589 46.5409 193.197 46.9902C192.412 47.8884 191.301 49.1872 189.986 50.804C187.36 54.0328 183.897 58.5532 180.575 63.7012C177.263 68.835 174.034 74.6783 171.933 80.5463C169.849 86.3689 168.759 92.5363 170.131 98.153L173.045 97.4413L175.959 96.7296C174.987 92.7489 175.678 87.8887 177.582 82.5685C179.471 77.2936 182.439 71.8789 185.617 66.9543C188.785 62.0439 192.106 57.7056 194.641 54.5903C195.906 53.0351 196.97 51.7905 197.715 50.9383C198.087 50.5124 198.379 50.1849 198.576 49.966C198.674 49.8566 198.749 49.7744 198.798 49.7207C198.823 49.6938 198.841 49.674 198.852 49.6616C198.858 49.6553 198.862 49.6509 198.864 49.6484C198.865 49.6471 198.866 49.6463 198.866 49.6459C198.867 49.6457 198.867 49.6458 198.867 49.6457C198.866 49.6459 198.866 49.6462 196.663 47.6104ZM173.045 97.4413L170.227 98.4714C176.423 115.419 179.903 123.591 187.617 143.617L190.416 142.539L193.216 141.461C185.441 121.276 182.04 113.307 175.863 96.4112L173.045 97.4413ZM190.416 142.539L187.617 143.617C190.437 150.939 199.242 157.322 209.318 157.076L209.245 154.077L209.171 151.078C201.507 151.265 195.081 146.304 193.216 141.461L190.416 142.539ZM163.492 101.121L166.166 99.7611C164.048 95.599 159.163 92.3351 153.937 89.7662C148.538 87.1126 142.063 84.8683 135.903 83.0606C129.724 81.2473 123.767 79.8457 119.361 78.8982C117.156 78.424 115.333 78.0622 114.059 77.8186C113.422 77.6967 112.922 77.6043 112.579 77.542C112.407 77.5109 112.275 77.4873 112.185 77.4713C112.14 77.4633 112.105 77.4572 112.082 77.453C112.07 77.4509 112.06 77.4493 112.054 77.4482C112.051 77.4476 112.048 77.4472 112.046 77.4469C112.045 77.4467 112.044 77.4466 112.044 77.4465C112.043 77.4464 112.043 77.4463 111.531 80.4023C111.02 83.3584 111.02 83.3584 111.02 83.3584C111.02 83.3584 111.02 83.3585 111.02 83.3585C111.021 83.3587 111.023 83.359 111.025 83.3594C111.03 83.3601 111.037 83.3614 111.047 83.3631C111.067 83.3666 111.097 83.372 111.138 83.3793C111.22 83.3938 111.344 83.4159 111.507 83.4455C111.833 83.5046 112.314 83.5936 112.932 83.7117C114.167 83.948 115.945 84.3007 118.099 84.7641C122.414 85.692 128.22 87.0588 134.214 88.8178C140.226 90.5823 146.332 92.7139 151.29 95.1508C156.419 97.6723 159.664 100.213 160.818 102.481L163.492 101.121ZM163.492 101.121L160.818 102.481C163.979 108.696 168.045 119.749 171.365 129.415C173.013 134.213 174.458 138.613 175.491 141.814C176.008 143.414 176.421 144.714 176.705 145.612C176.847 146.061 176.956 146.41 177.03 146.646C177.067 146.764 177.095 146.854 177.114 146.914C177.123 146.944 177.13 146.967 177.135 146.982C177.137 146.989 177.139 146.995 177.14 146.999C177.14 147 177.141 147.002 177.141 147.003C177.141 147.003 177.141 147.003 177.141 147.003C177.141 147.004 177.141 147.004 180.007 146.114C182.872 145.225 182.872 145.225 182.872 145.224C182.871 145.224 182.871 145.224 182.871 145.223C182.871 145.222 182.87 145.22 182.87 145.218C182.868 145.214 182.866 145.208 182.864 145.2C182.859 145.184 182.852 145.16 182.842 145.129C182.822 145.067 182.794 144.975 182.756 144.854C182.681 144.613 182.57 144.259 182.426 143.805C182.139 142.896 181.722 141.584 181.201 139.971C180.16 136.745 178.703 132.308 177.039 127.466C173.737 117.85 169.546 106.407 166.166 99.7611L163.492 101.121ZM180.007 146.114L177.057 146.66C178.093 152.256 177.467 158.408 171.609 165.03L173.855 167.018L176.102 169.005C183.345 160.819 184.282 152.726 182.956 145.568L180.007 146.114ZM173.855 167.018L174.886 169.835L210.275 156.895L209.245 154.077L208.214 151.259L172.825 164.2L173.855 167.018Z" fill="#A8A7A6"/>
</svg>
