<svg width="26" height="26" viewBox="0 0 26 26" fill="none" xmlns="http://www.w3.org/2000/svg">
<path d="M12.9792 22.2083C10.8015 22.2083 8.8821 21.5437 7.22099 20.2144C5.55988 18.8854 4.49524 17.1847 4.02706 15.1125C3.96874 14.8973 4.00385 14.6994 4.13241 14.5188C4.26079 14.3383 4.44269 14.2334 4.67814 14.2041C4.89968 14.175 5.09829 14.2188 5.27397 14.3355C5.44965 14.4521 5.57225 14.6236 5.64176 14.8501C6.05415 16.5236 6.94267 17.8976 8.30731 18.9719C9.67195 20.0462 11.2292 20.5833 12.9792 20.5833C15.0917 20.5833 16.8837 19.8476 18.3552 18.376C19.8268 16.9045 20.5625 15.1125 20.5625 13C20.5625 10.8875 19.8268 9.09548 18.3552 7.62395C16.8837 6.15242 15.0917 5.41666 12.9792 5.41666C11.7958 5.41666 10.6868 5.67955 9.65227 6.20532C8.6175 6.73092 7.72646 7.45414 6.97914 8.37497H9.0001C9.23031 8.37497 9.42323 8.45288 9.57887 8.6087C9.73469 8.76452 9.8126 8.95753 9.8126 9.18774C9.8126 9.41813 9.73469 9.61105 9.57887 9.76651C9.42323 9.92215 9.23031 9.99997 9.0001 9.99997H5.29185C5.01433 9.99997 4.78178 9.90608 4.59418 9.7183C4.4064 9.53071 4.31251 9.29815 4.31251 9.02064V5.31239C4.31251 5.08218 4.39042 4.88925 4.54624 4.73362C4.70206 4.5778 4.89517 4.49989 5.12556 4.49989C5.35576 4.49989 5.54869 4.5778 5.70433 4.73362C5.85979 4.88925 5.93751 5.08218 5.93751 5.31239V7.06657C6.81664 6.0291 7.86946 5.22391 9.09597 4.65101C10.3223 4.07811 11.6167 3.79166 12.9792 3.79166C14.2575 3.79166 15.4549 4.03333 16.5712 4.51668C17.6876 5.00003 18.6611 5.65698 19.4916 6.48753C20.3222 7.31809 20.9791 8.29146 21.4625 9.40766C21.9458 10.524 22.1875 11.7213 22.1875 12.9994C22.1875 14.2776 21.9458 15.475 21.4625 16.5915C20.9791 17.7082 20.3222 18.6819 19.4916 19.5125C18.6611 20.343 17.6876 21 16.5712 21.4833C15.4549 21.9667 14.2575 22.2083 12.9792 22.2083ZM13.8228 12.6709L16.802 15.6501C16.952 15.8 17.0288 15.9885 17.0322 16.2156C17.0358 16.4427 16.9591 16.6348 16.802 16.7917C16.6451 16.9486 16.4549 17.027 16.2313 17.027C16.0076 17.027 15.8173 16.9486 15.6604 16.7917L12.4917 13.6229C12.3904 13.5214 12.3161 13.4109 12.2688 13.2914C12.2217 13.1719 12.1981 13.0484 12.1981 12.9209V8.39582C12.1981 8.16562 12.2759 7.9726 12.4316 7.81678C12.5874 7.66114 12.7805 7.58332 13.0109 7.58332C13.2411 7.58332 13.434 7.66114 13.5896 7.81678C13.7451 7.9726 13.8228 8.16562 13.8228 8.39582V12.6709Z" fill="white"/>
</svg>
