<svg width="23" height="23" viewBox="0 0 23 23" fill="none" xmlns="http://www.w3.org/2000/svg">
<path d="M11.5002 22.9998C7.1823 22.9998 2.79468 15.4058 2.79468 11.1627C2.79468 6.8605 7.31335 4.19727 11.5002 4.19727C15.6867 4.19727 20.2054 6.8605 20.2054 11.1627C20.2054 15.4058 15.8178 22.9998 11.5002 22.9998ZM11.5002 5.29235C7.84008 5.29235 3.88976 7.5369 3.88976 11.1627C3.88976 14.8973 7.92149 21.9047 11.5002 21.9047C15.0786 21.9047 19.1103 14.8973 19.1103 11.1627C19.1103 7.5369 15.16 5.29235 11.5002 5.29235Z" fill="#111111"/>
<path d="M5.73495 5.79116C5.54878 5.79116 5.37503 5.7083 5.27428 5.55133C5.17135 5.39145 5.15857 5.19507 5.24143 5.0235C6.00945 3.42688 7.67945 2.95015 8.71722 2.80815C8.35876 2.29931 7.78677 1.57801 7.26441 0.967322C7.14724 0.830072 7.10453 0.644638 7.15125 0.470155C7.19834 0.296037 7.32793 0.156232 7.49839 0.0960022C7.67945 0.0321224 7.87839 0 8.08901 0C9.33302 0 10.872 1.16553 11.575 1.75907C12.2854 1.16736 13.805 0.0346776 15.0373 0.0346776C15.2494 0.0346776 15.4494 0.06753 15.6316 0.131775C15.8028 0.192369 15.9327 0.333635 15.9791 0.509213C16.0251 0.684791 15.9813 0.871685 15.8615 1.00857C15.3823 1.55684 14.8606 2.19892 14.5014 2.68624C15.5472 2.7388 17.1596 3.14872 17.9042 5.04322C17.9703 5.21186 17.9488 5.4024 17.8469 5.55206C17.7451 5.70172 17.5757 5.79116 17.3946 5.79116H14.6631C14.623 5.79116 14.5836 5.78678 14.5445 5.77838L11.6509 5.13812C11.594 5.14104 11.5155 5.1436 11.4002 5.14433L8.64276 5.74334C8.60844 5.751 8.5734 5.74334 8.53799 5.74407L5.74626 5.79116C5.74225 5.79116 5.7386 5.79116 5.73495 5.79116ZM14.723 4.69607H16.4536C15.8429 3.95324 14.9563 3.77475 14.247 3.77475C13.8849 3.77475 13.6352 3.82439 13.6327 3.82512C13.4629 3.8587 13.2877 3.81198 13.1589 3.69736C13.0304 3.58311 12.9621 3.41483 12.9764 3.2429C13.0037 2.92095 13.3845 2.29931 14.1116 1.38929C13.3943 1.72329 12.5916 2.38034 12.0667 2.8432C11.9824 3.03703 11.7889 3.23597 11.5648 3.23597H11.5637C11.3312 3.23597 11.1315 3.02535 11.053 2.8191C10.5234 2.34895 9.71448 1.71526 8.9961 1.3809C9.73747 2.32449 10.1259 2.94796 10.1529 3.27247C10.1656 3.42907 10.1109 3.57581 10.0021 3.68896C9.89261 3.80212 9.74185 3.86053 9.58343 3.8525L9.51772 3.84958C9.18884 3.84958 7.80027 3.89849 6.85741 4.6968L8.46207 4.66249L11.2235 4.06239C11.2607 4.05436 11.2987 4.04998 11.3367 4.04998C11.4991 4.04888 11.5728 4.04633 11.606 4.04377C11.6718 4.03428 11.7404 4.03611 11.8054 4.05071L14.723 4.69607Z" fill="#111111"/>
<path d="M6.74466 10.6625C6.74466 10.9976 6.47308 11.2691 6.13835 11.2691C5.80326 11.2691 5.53204 10.9976 5.53204 10.6625C5.53204 10.3277 5.80326 10.0562 6.13835 10.0562C6.47308 10.0562 6.74466 10.3277 6.74466 10.6625Z" fill="#111111"/>
<path d="M10.3832 10.6625C10.3832 10.9976 10.112 11.2691 9.7769 11.2691C9.44181 11.2691 9.17059 10.9976 9.17059 10.6625C9.17059 10.3277 9.44181 10.0562 9.7769 10.0562C10.112 10.0562 10.3832 10.3277 10.3832 10.6625Z" fill="#111111"/>
<path d="M14.0218 10.6625C14.0218 10.9976 13.7506 11.2691 13.4155 11.2691C13.0808 11.2691 12.8088 10.9976 12.8088 10.6625C12.8088 10.3277 13.0808 10.0562 13.4155 10.0562C13.7506 10.0562 14.0218 10.3277 14.0218 10.6625Z" fill="#111111"/>
<path d="M17.6604 10.6625C17.6604 10.9976 17.3889 11.2691 17.0538 11.2691C16.719 11.2691 16.4474 10.9976 16.4474 10.6625C16.4474 10.3277 16.719 10.0562 17.0538 10.0562C17.3889 10.0562 17.6604 10.3277 17.6604 10.6625Z" fill="#111111"/>
<path d="M8.36173 13.4925C8.36173 13.8276 8.09051 14.0992 7.75542 14.0992C7.42069 14.0992 7.14911 13.8276 7.14911 13.4925C7.14911 13.1578 7.42069 12.8862 7.75542 12.8862C8.09051 12.8862 8.36173 13.1578 8.36173 13.4925Z" fill="#111111"/>
<path d="M12.0006 13.4925C12.0006 13.8276 11.7287 14.0992 11.394 14.0992C11.0592 14.0992 10.7873 13.8276 10.7873 13.4925C10.7873 13.1578 11.0592 12.8862 11.394 12.8862C11.7287 12.8862 12.0006 13.1578 12.0006 13.4925Z" fill="#111111"/>
<path d="M15.6389 13.4925C15.6389 13.8276 15.3673 14.0992 15.0326 14.0992C14.6975 14.0992 14.4263 13.8276 14.4263 13.4925C14.4263 13.1578 14.6975 12.8862 15.0326 12.8862C15.3673 12.8862 15.6389 13.1578 15.6389 13.4925Z" fill="#111111"/>
<path d="M8.36173 8.0067C8.36173 8.34143 8.09051 8.61301 7.75542 8.61301C7.42069 8.61301 7.14911 8.34143 7.14911 8.0067C7.14911 7.67161 7.42069 7.40039 7.75542 7.40039C8.09051 7.40039 8.36173 7.67161 8.36173 8.0067Z" fill="#111111"/>
<path d="M12.0006 8.0067C12.0006 8.34143 11.7287 8.61301 11.394 8.61301C11.0592 8.61301 10.7873 8.34143 10.7873 8.0067C10.7873 7.67161 11.0592 7.40039 11.394 7.40039C11.7287 7.40039 12.0006 7.67161 12.0006 8.0067Z" fill="#111111"/>
<path d="M15.6389 8.0067C15.6389 8.34143 15.3673 8.61301 15.0326 8.61301C14.6975 8.61301 14.4263 8.34143 14.4263 8.0067C14.4263 7.67161 14.6975 7.40039 15.0326 7.40039C15.3673 7.40039 15.6389 7.67161 15.6389 8.0067Z" fill="#111111"/>
<path d="M9.97879 17.1312C9.97879 17.4663 9.70721 17.7375 9.37248 17.7375C9.03739 17.7375 8.76617 17.4663 8.76617 17.1312C8.76617 16.7965 9.03739 16.5249 9.37248 16.5249C9.70721 16.5249 9.97879 16.7965 9.97879 17.1312Z" fill="#111111"/>
<path d="M13.6173 17.1312C13.6173 17.4663 13.3461 17.7375 13.011 17.7375C12.6763 17.7375 12.4047 17.4663 12.4047 17.1312C12.4047 16.7965 12.6763 16.5249 13.011 16.5249C13.3461 16.5249 13.6173 16.7965 13.6173 17.1312Z" fill="#111111"/>
<path d="M12.0006 19.9613C12.0006 20.2964 11.7287 20.5676 11.394 20.5676C11.0592 20.5676 10.7873 20.2964 10.7873 19.9613C10.7873 19.6266 11.0592 19.355 11.394 19.355C11.7287 19.355 12.0006 19.6266 12.0006 19.9613Z" fill="#111111"/>
</svg>
