<svg width="15" height="23" viewBox="0 0 15 23" fill="none" xmlns="http://www.w3.org/2000/svg">
<path d="M6.06984 18.6395L11.6125 11.4518H7.32833L8.10484 4.87282L3.15121 12.6111H6.87313L6.06984 18.6395ZM4.4097 14.9297H1.08943C0.661009 14.9297 0.344155 14.722 0.13887 14.3066C-0.0664159 13.8912 -0.0441023 13.4903 0.205811 13.1038L8.21195 0.641393C8.39046 0.370891 8.62252 0.182505 8.90813 0.0762363C9.19375 -0.0300325 9.48829 -0.0252021 9.79175 0.0907275C10.0952 0.206657 10.3184 0.409534 10.4612 0.699358C10.604 0.989182 10.6575 1.29833 10.6218 1.62679L9.76498 9.13324H13.9153C14.3794 9.13324 14.7052 9.35544 14.8927 9.79983C15.0801 10.2442 15.0221 10.6596 14.7186 11.0461L5.90918 22.4651C5.71282 22.7163 5.47183 22.8806 5.18622 22.9578C4.9006 23.0351 4.62391 23.0061 4.35615 22.8709C4.08838 22.7356 3.87864 22.5279 3.7269 22.2478C3.57517 21.9676 3.51716 21.6633 3.55286 21.3348L4.4097 14.9297Z" fill="#F84B07"/>
</svg>
